<svg width="45" height="45" viewBox="0 0 45 45" fill="none" xmlns="http://www.w3.org/2000/svg">
<path d="M36.0751 10.4623H35.3251L28.9876 4.1248C28.4813 3.61855 27.6563 3.61855 27.1313 4.1248C26.6251 4.63105 26.6251 5.45605 27.1313 5.98105L31.6126 10.4623H13.3876L17.8688 5.98105C18.3751 5.4748 18.3751 4.6498 17.8688 4.1248C17.3626 3.61855 16.5376 3.61855 16.0126 4.1248L9.69381 10.4623H8.94381C7.25631 10.4623 3.75006 10.4623 3.75006 15.2623C3.75006 17.0811 4.12506 18.2811 4.91256 19.0686C5.36256 19.5373 5.90631 19.7811 6.48756 19.9123C7.03131 20.0436 7.61256 20.0623 8.17506 20.0623H36.8251C37.4063 20.0623 37.9501 20.0248 38.4751 19.9123C40.0501 19.5373 41.2501 18.4123 41.2501 15.2623C41.2501 10.4623 37.7438 10.4623 36.0751 10.4623Z" fill="black"/>
<path d="M35.7187 22.5H9.13117C7.96867 22.5 7.08743 23.5312 7.27492 24.675L8.84992 34.3125C9.37492 37.5375 10.7812 41.25 17.0249 41.25H27.5437C33.8624 41.25 34.9874 38.0813 35.6624 34.5375L37.5562 24.7312C37.7812 23.5687 36.8999 22.5 35.7187 22.5ZM19.8937 34.5938C19.8937 35.325 19.3124 35.9062 18.5999 35.9062C17.8687 35.9062 17.2874 35.325 17.2874 34.5938V28.4062C17.2874 27.6937 17.8687 27.0937 18.5999 27.0937C19.3124 27.0937 19.8937 27.6937 19.8937 28.4062V34.5938ZM27.9187 34.5938C27.9187 35.325 27.3374 35.9062 26.6062 35.9062C25.8937 35.9062 25.2937 35.325 25.2937 34.5938V28.4062C25.2937 27.6937 25.8937 27.0937 26.6062 27.0937C27.3374 27.0937 27.9187 27.6937 27.9187 28.4062V34.5938Z" fill="black"/>
</svg>
