<svg width="45" height="45" viewBox="0 0 45 45" fill="none" xmlns="http://www.w3.org/2000/svg">
<path d="M22.5 3.75C17.5875 3.75 13.5938 7.74375 13.5938 12.6562C13.5938 17.475 17.3625 21.375 22.275 21.5437C22.425 21.525 22.575 21.525 22.6875 21.5437C22.725 21.5437 22.7437 21.5437 22.7812 21.5437C22.8 21.5437 22.8 21.5437 22.8188 21.5437C27.6187 21.375 31.3875 17.475 31.4062 12.6562C31.4062 7.74375 27.4125 3.75 22.5 3.75Z" fill="black"/>
<path d="M32.025 26.5312C26.7937 23.0437 18.2625 23.0437 12.9937 26.5312C10.6125 28.1249 9.29999 30.2812 9.29999 32.5874C9.29999 34.8937 10.6125 37.0312 12.975 38.6062C15.6 40.3687 19.05 41.2499 22.5 41.2499C25.95 41.2499 29.4 40.3687 32.025 38.6062C34.3875 37.0124 35.7 34.8749 35.7 32.5499C35.6812 30.2437 34.3875 28.1062 32.025 26.5312Z" fill="black"/>
</svg>
